<svg width="33" height="34" viewBox="0 0 33 34" fill="none" xmlns="http://www.w3.org/2000/svg">
<circle cx="16.5" cy="17.2988" r="16.5" fill="#EEAFAF"/>
<mask id="mask0_397_37966" style="mask-type:alpha" maskUnits="userSpaceOnUse" x="0" y="0" width="33" height="34">
<circle cx="16.5" cy="17.2988" r="16.5" fill="#D9D9D9"/>
</mask>
<g mask="url(#mask0_397_37966)">
<path d="M27.2112 29.7802L25.6694 10.3067C25.6694 10.2064 25.5942 9.40389 25.5817 9.30358C25.5817 9.24088 25.5692 9.19073 25.5566 9.14057V9.04025H25.5441C25.0302 6.35684 23.1124 4.4258 20.5554 4.50104C19.7407 4.52611 19.0889 4.68912 18.4246 5.09037C17.3341 4.12485 16.0054 3.79883 14.5139 3.79883C11.117 3.79883 8.33441 6.54493 8.14639 10.3318V10.382C8.14639 10.5073 8.10879 10.6202 8.10879 10.7456C8.10879 10.871 8.09626 11.1845 8.09626 11.3099L6.50439 29.7426L27.2112 29.7802Z" fill="#061E23"/>
<path d="M15.1398 17.5807V25.2171H18.9878V17.3926H15.1398V17.5807Z" fill="#FFE7B9"/>
<path d="M12.232 28.0744C12.771 26.3816 11.8309 24.5634 10.1262 24.0368C8.43407 23.4976 6.61659 24.438 6.09015 26.1434C6.05254 26.2562 6.04001 26.3691 6.01494 26.4819L3.16966 35.5102C3.09445 35.6607 3.01924 35.8112 2.9691 35.9867C2.94404 36.0619 2.94404 36.1247 2.9315 36.1999L-0.114357 45.8551C-0.164494 45.968 -0.214632 46.0683 -0.252236 46.1812C-0.791213 47.874 0.148874 49.6922 1.85355 50.2188C3.55822 50.7455 5.36317 49.8176 5.88961 48.1122C5.92722 47.9994 5.93973 47.8865 5.95227 47.7862L8.92292 38.3692C8.9856 38.2312 9.0608 38.0808 9.11093 37.9303C9.12347 37.8676 9.136 37.8175 9.14853 37.7548L12.0941 28.4004C12.1443 28.2876 12.1944 28.1873 12.232 28.0744Z" fill="#FDF7F7"/>
<path d="M34.9317 46.1695C34.8941 46.0567 34.844 45.9563 34.7939 45.8435L31.748 36.1882C31.7355 36.113 31.7229 36.0503 31.6979 35.9751C31.6477 35.8121 31.5725 35.649 31.4973 35.4986L28.652 26.4703C28.6269 26.3574 28.6144 26.2446 28.5768 26.1317C28.0378 24.4389 26.2329 23.4985 24.5407 24.0251C22.8486 24.5643 21.9085 26.37 22.435 28.0628C22.4726 28.1756 22.5227 28.2759 22.5729 28.3763L25.5184 37.7306C25.531 37.7933 25.531 37.8434 25.556 37.9061C25.6062 38.0566 25.6688 38.2071 25.7441 38.345L28.7147 47.762C28.7398 47.8749 28.7523 47.9877 28.7774 48.088C29.3163 49.7808 31.1213 50.7213 32.8134 50.1946C34.5181 49.6805 35.4582 47.8749 34.9317 46.1695Z" fill="#FDF7F7"/>
<path d="M16.958 19.5988C20.2254 19.5988 22.8742 16.949 22.8742 13.6803C22.8742 10.4115 20.2254 7.76172 16.958 7.76172C13.6905 7.76172 11.0417 10.4115 11.0417 13.6803C11.0417 16.949 13.6905 19.5988 16.958 19.5988Z" fill="white" stroke="black" stroke-width="0.825" stroke-miterlimit="10"/>
<path d="M16.9957 20.7899H16.9331C13.6867 20.7899 11.0544 18.1566 11.0544 14.909V11.1973C11.0544 7.94966 13.6867 5.31641 16.9331 5.31641H16.9957C20.2421 5.31641 22.8743 7.94966 22.8743 11.1973V14.909C22.8743 18.1566 20.2421 20.7899 16.9957 20.7899Z" fill="#FFE7B9"/>
<path d="M26.4968 33.9428C26.4968 33.9303 26.5094 33.9178 26.5094 33.9052V29.3785C26.5094 25.6042 23.6766 22.5195 20.2171 22.5195H14.2132C10.7537 22.5195 7.9209 25.6042 7.9209 29.3785V33.7046C7.89583 33.8425 7.8833 33.9804 7.8833 34.1184V37.0024C7.8833 41.1404 10.9793 44.5135 14.7647 44.5135H19.628C23.4134 44.5135 26.5094 41.1278 26.5094 37.0024V34.1184C26.5094 34.0557 26.4968 34.0055 26.4968 33.9428Z" fill="#FDF7F7"/>
<path d="M11.2284 28.7397C11.2534 28.7147 11.2785 28.677 11.3036 28.652C11.4289 28.5391 11.5793 28.4889 11.7423 28.5391C11.8551 28.5642 11.9303 28.6394 11.993 28.7272C12.1058 28.8902 12.1058 29.0783 12.0055 29.2288C11.8927 29.3918 11.7423 29.467 11.5543 29.4419C11.4289 29.4294 11.3287 29.3542 11.2535 29.2664C11.1782 29.1786 11.1657 29.0658 11.1532 28.9529C11.1406 28.8902 11.1406 28.815 11.1156 28.7523C11.0654 28.6018 10.9777 28.4764 10.8398 28.3761C10.727 28.2883 10.6017 28.2507 10.4638 28.2256C10.3635 28.2131 10.2632 28.2256 10.163 28.2507C10.0501 28.2883 9.96241 28.3385 9.87467 28.4012C9.72425 28.5391 9.63652 28.7021 9.61146 28.9027C9.59892 29.0281 9.61145 29.141 9.66158 29.2538C9.71172 29.3918 9.79946 29.5046 9.91227 29.5924C10.0251 29.6802 10.163 29.7303 10.3008 29.7429C10.4638 29.7554 10.6142 29.7303 10.7521 29.6551C10.8147 29.6175 10.8774 29.5799 10.9275 29.5297C10.8774 29.4169 10.8273 29.3165 10.7771 29.2288C10.7145 29.3416 10.5515 29.4419 10.4011 29.4545C10.2632 29.4545 10.1504 29.4043 10.0501 29.304C9.94987 29.1911 9.91227 29.0658 9.93734 28.9278C9.96241 28.7899 10.0251 28.6896 10.1504 28.6143C10.3134 28.514 10.4763 28.514 10.6393 28.6018C10.7897 28.6896 10.8524 28.84 10.8649 29.0031C10.8774 29.1034 10.89 29.2162 10.9401 29.304C11.0028 29.4419 11.0905 29.5422 11.2159 29.63C11.3161 29.6927 11.4164 29.7303 11.5292 29.7554C11.642 29.768 11.7423 29.768 11.8551 29.7429C11.9428 29.7178 12.0306 29.6676 12.1183 29.6049C12.2938 29.467 12.3941 29.2915 12.4191 29.0658C12.4317 28.9153 12.4066 28.7648 12.3189 28.6269C12.2186 28.4513 12.0682 28.3259 11.8802 28.2758C11.7548 28.2382 11.6295 28.2256 11.5041 28.2507C11.3537 28.2758 11.2284 28.3385 11.1156 28.4388C11.103 28.4513 11.103 28.4639 11.1156 28.4764C11.1532 28.5391 11.2033 28.6394 11.2284 28.7397Z" fill="#ED1C24"/>
<path d="M11.2289 28.7386C11.2038 28.6383 11.1537 28.5505 11.091 28.4627C11.0785 28.4502 11.0785 28.4377 11.091 28.4251C11.2038 28.3248 11.3291 28.2621 11.4796 28.237C11.6049 28.2119 11.7303 28.2245 11.8556 28.2621C12.0436 28.3248 12.194 28.4502 12.2943 28.6132C12.3695 28.7511 12.4071 28.9016 12.3946 29.0521C12.3695 29.2778 12.2692 29.4533 12.0938 29.5913C12.0185 29.654 11.9308 29.6916 11.8305 29.7292C11.7302 29.7543 11.6174 29.7668 11.5046 29.7417C11.3918 29.7292 11.2916 29.6791 11.1913 29.6164C11.0659 29.5411 10.9782 29.4283 10.9155 29.2903C10.8654 29.19 10.8528 29.0897 10.8403 28.9894C10.8152 28.8264 10.7651 28.6759 10.6147 28.5881C10.4517 28.4878 10.2888 28.4878 10.1258 28.6007C10.013 28.6759 9.93783 28.7762 9.91277 28.9141C9.8877 29.0521 9.9253 29.19 10.0256 29.2903C10.1258 29.3906 10.2387 29.4408 10.3766 29.4408C10.527 29.4408 10.6899 29.3405 10.7526 29.2151C10.8027 29.3154 10.8529 29.4157 10.903 29.516C10.8654 29.5662 10.8027 29.6038 10.7275 29.6414C10.5896 29.7167 10.4392 29.7417 10.2763 29.7292C10.1384 29.7167 10.0005 29.6665 9.88771 29.5787C9.7749 29.491 9.68715 29.3781 9.63701 29.2402C9.59941 29.1273 9.57435 29.0145 9.58688 28.8891C9.61195 28.6884 9.69968 28.5129 9.85009 28.3875C9.93783 28.3123 10.0256 28.2621 10.1384 28.237C10.2387 28.2119 10.3389 28.1994 10.4392 28.212C10.5771 28.2245 10.7024 28.2747 10.8152 28.3624C10.9531 28.4627 11.0409 28.5881 11.091 28.7386C11.1161 28.8013 11.1161 28.864 11.1286 28.9392C11.1411 29.0521 11.1537 29.1649 11.2289 29.2527C11.3041 29.353 11.4044 29.4157 11.5297 29.4283C11.7303 29.4533 11.8807 29.3781 11.9809 29.2151C12.0812 29.0646 12.0812 28.8765 11.9684 28.7135C11.9057 28.6257 11.818 28.5631 11.7177 28.5254C11.5422 28.4753 11.4043 28.5254 11.279 28.6383C11.279 28.6759 11.2539 28.701 11.2289 28.7386Z" fill="#ED1C24"/>
<path d="M23.3757 11.6219C23.3757 7.97294 20.5053 5.01367 16.9581 5.01367C15.9177 5.01367 14.9401 5.30208 14.0626 5.7535C13.4359 6.0419 12.9095 6.44315 12.4833 6.89457C12.4081 6.9698 12.358 7.04504 12.2828 7.12027C12.1825 7.24567 12.0697 7.37106 11.982 7.50899C11.255 8.4369 10.7787 9.56544 10.6282 10.8068C10.4277 11.7974 10.4152 12.5247 10.4152 12.5247C11.3678 13.1266 12.4959 13.4777 13.7117 13.4777C16.2687 13.4777 18.4622 11.9103 19.3647 9.69083C19.7909 11.6219 21.32 13.1391 23.2879 13.5404C23.2879 13.5404 23.4258 12.8131 23.3757 11.7974C23.3631 11.7347 23.3757 11.6846 23.3757 11.6219Z" fill="#061E23"/>
<path d="M22.3849 13.6298C22.3849 13.6298 23.2999 12.263 24.4154 13.0028C26.1577 14.1564 23.9767 17.1157 22.3222 16.4386" fill="#FFE7B9"/>
<path d="M11.6431 15.837C9.98858 16.5141 7.8076 13.5548 9.54988 12.4012C10.6654 11.6614 11.5804 13.0282 11.5804 13.0282" fill="#FFE7B9"/>
<path d="M14.2004 22.5195C14.2004 22.5195 8.38451 22.507 7.90821 29.3785L7.87061 37.0024C7.87061 37.0024 7.99594 40.0996 9.34965 41.5793" stroke="#1E363B" stroke-width="0.4125" stroke-miterlimit="10"/>
<path d="M24.2776 24.25C24.2776 24.25 26.3959 25.9679 26.4335 28.8143C26.4711 31.6607 26.5087 37.0025 26.5087 37.0025C26.5087 37.0025 26.4711 39.4602 25.4809 40.9022" stroke="#1E363B" stroke-width="0.4125" stroke-miterlimit="10"/>
<path d="M11.5552 13.2285C11.5552 13.2285 10.0385 16.1878 12.6958 19.0091C13.9493 20.3383 15.5411 20.6894 16.8948 20.6768" stroke="#1E363B" stroke-width="0.4125" stroke-miterlimit="10"/>
<path d="M22.5605 13.2793C22.5605 13.2793 23.0368 15.3984 22.3976 17.3169" stroke="#1E363B" stroke-width="0.4125" stroke-miterlimit="10"/>
<path d="M17.1715 22.4336L14.7899 24.8161L14.7649 22.4461L17.1715 22.4336Z" fill="#8E191C"/>
<path d="M16.9583 22.4336L19.3398 24.8161L19.3649 22.4461L16.9583 22.4336Z" fill="#8E191C"/>
<path d="M17.0705 22.4707V38.9975" stroke="#8E191C" stroke-width="0.4125" stroke-miterlimit="10"/>
<path d="M18.0732 13.3425C18.0732 13.3425 20.3795 13.2422 20.8808 13.3174C21.3822 13.3927 20.8056 12.9287 20.5675 12.8159C20.3293 12.7156 18.1985 12.7657 18.0982 12.7908C17.9979 12.8159 17.9478 13.2924 17.9979 13.33C18.0355 13.3676 18.0732 13.3425 18.0732 13.3425Z" fill="black"/>
<path d="M19.4523 15.2591C19.7569 15.2591 20.0038 15.0008 20.0038 14.6823C20.0038 14.3637 19.7569 14.1055 19.4523 14.1055C19.1477 14.1055 18.9008 14.3637 18.9008 14.6823C18.9008 15.0008 19.1477 15.2591 19.4523 15.2591Z" fill="black"/>
<path d="M19.9025 14.7081C20.0279 14.683 20.1407 14.6328 20.2535 14.5701C20.2911 14.545 20.3162 14.52 20.3287 14.4823C20.3412 14.4447 20.3287 14.3946 20.3162 14.3695C20.2911 14.3319 20.266 14.3068 20.2284 14.2943C20.1908 14.2817 20.1532 14.2943 20.1156 14.3068C20.078 14.3319 20.0279 14.3569 19.9903 14.3695C20.0028 14.3695 20.0154 14.3569 20.0279 14.3569C19.9652 14.382 19.9151 14.4071 19.8524 14.4196C19.8148 14.4322 19.7772 14.4573 19.7647 14.4949C19.7396 14.5325 19.7396 14.5701 19.7521 14.6077C19.7396 14.683 19.8148 14.7206 19.9025 14.7081Z" fill="black"/>
<path d="M15.9557 13.3425C15.9557 13.3425 13.6494 13.2422 13.148 13.3174C12.6466 13.3927 13.2232 12.9287 13.4614 12.8159C13.6995 12.7156 15.8304 12.7657 15.9306 12.7908C16.0309 12.8159 16.0811 13.2924 16.0309 13.33C15.9808 13.3676 15.9557 13.3425 15.9557 13.3425Z" fill="black"/>
<path d="M14.5769 15.2591C14.8815 15.2591 15.1284 15.0008 15.1284 14.6823C15.1284 14.3637 14.8815 14.1055 14.5769 14.1055C14.2723 14.1055 14.0254 14.3637 14.0254 14.6823C14.0254 15.0008 14.2723 15.2591 14.5769 15.2591Z" fill="black"/>
<path d="M14.2005 14.4051C14.1378 14.3926 14.0751 14.3675 14.025 14.3424C14.0375 14.3424 14.0501 14.355 14.0626 14.355C14.0125 14.3299 13.9749 14.3173 13.9373 14.2923C13.8997 14.2672 13.8621 14.2672 13.8245 14.2797C13.7869 14.2923 13.7492 14.3173 13.7367 14.355C13.7242 14.3926 13.7117 14.4302 13.7242 14.4678C13.7367 14.5054 13.7618 14.543 13.7994 14.5556C13.9122 14.6183 14.025 14.6684 14.1504 14.6935C14.188 14.7061 14.2381 14.6935 14.2632 14.681C14.3008 14.6684 14.3258 14.6308 14.3384 14.5932C14.3509 14.5556 14.3509 14.5054 14.3258 14.4804C14.2757 14.4427 14.2381 14.4177 14.2005 14.4051Z" fill="black"/>
<path d="M17.1082 15.0977C17.1082 15.0977 16.2307 16.1886 16.494 16.5898C16.7697 16.9911 17.5092 16.7278 17.5092 16.7278" fill="#F9A76A"/>
<path d="M15.3909 17.9297C15.3909 17.9297 16.8825 19.1335 18.3239 17.9548" stroke="black" stroke-width="0.34947" stroke-miterlimit="10"/>
</g>
</svg>
